# This file uses centimeters as units for non-parametric coordinates.

mtllib garage.mtl
g default
v 0.916500 -0.738000 -3.020902
v 0.916500 1.095000 -3.020902
v 0.916500 -0.738000 0.083333
v 0.916500 1.095000 0.083333
v 0.749834 -0.738000 0.083333
v 0.749834 1.095000 0.083333
v 0.749834 -0.738000 -3.020902
v 0.749834 1.095000 -3.020902
v 0.753543 1.095000 -3.020902
v 3.270608 1.095000 -3.020902
v 0.753543 1.095000 0.083333
v 3.270608 1.095000 0.083333
v 0.753543 1.261666 0.083333
v 3.270609 1.261666 0.083333
v 0.753543 1.261666 -3.020902
v 3.270609 1.261666 -3.020902
v 3.106500 -0.738001 -2.854235
v 3.106500 1.094999 -2.854235
v 0.916500 -0.738001 -2.854235
v 0.916500 1.094999 -2.854235
v 0.916500 -0.738000 -3.020902
v 0.916500 1.095000 -3.020902
v 3.106500 -0.738000 -3.020902
v 3.106500 1.095000 -3.020902
v 3.273167 -0.738001 -3.020902
v 3.273167 1.094999 -3.020902
v 3.273167 -0.738001 0.083333
v 3.273167 1.094999 0.083333
v 3.106500 -0.738000 0.083333
v 3.106500 1.095000 0.083333
v 3.106500 -0.738000 -3.020902
v 3.106500 1.095000 -3.020902
v 0.916500 -0.904667 -3.020902
v 3.124452 -0.904667 -3.020902
v 0.916500 -0.904667 0.083333
v 3.124452 -0.904667 0.083333
v 0.916500 -0.738000 0.083333
v 3.124452 -0.738000 0.083333
v 0.916500 -0.738000 -3.020902
v 3.124452 -0.738000 -3.020902
vt -0.983427 0.025136
vt -0.016911 0.025136
vt -0.016911 0.991652
vt -0.983427 0.991652
vt -0.983427 0.025136
vt -0.016912 0.025136
vt -0.016912 0.991652
vt -0.983427 0.991652
vt -0.142073 1.325324
vt -0.142073 0.997075
vt 0.186176 0.997075
vt 0.186176 1.325324
vt -0.142073 1.325324
vt -0.142073 0.997075
vt 0.186176 0.997075
vt 0.186176 1.325325
vt 0.186176 0.997075
vt 0.186177 1.325324
vt -0.142073 1.325324
vt -0.142073 0.997075
vt 0.186176 0.997075
vt 0.186176 1.325324
vt -0.142073 1.325324
vt -0.142073 0.997075
vt -0.983427 0.025136
vt -0.016911 0.025136
vt -0.016911 0.991652
vt -0.983427 0.991652
vt -0.983427 0.025136
vt -0.016912 0.025136
vt -0.016912 0.991652
vt -0.983427 0.991652
vt -0.142073 1.325324
vt -0.142073 0.997075
vt 0.186176 0.997075
vt 0.186176 1.325324
vt -0.142073 1.325324
vt -0.142073 0.997075
vt 0.186176 0.997075
vt 0.186176 1.325325
vt 0.186176 0.997075
vt 0.186177 1.325324
vt -0.142073 1.325324
vt -0.142073 0.997075
vt 0.186176 0.997075
vt 0.186176 1.325324
vt -0.142073 1.325324
vt -0.142073 0.997075
vt -0.983427 0.025136
vt -0.016911 0.025136
vt -0.016911 0.991652
vt -0.983427 0.991652
vt -0.983427 0.025136
vt -0.016912 0.025136
vt -0.016912 0.991652
vt -0.983427 0.991652
vt -0.142073 1.325324
vt -0.142073 0.997075
vt 0.186176 0.997075
vt 0.186176 1.325324
vt -0.142073 1.325324
vt -0.142073 0.997075
vt 0.186176 0.997075
vt 0.186176 1.325325
vt 0.186176 0.997075
vt 0.186177 1.325324
vt -0.142073 1.325324
vt -0.142073 0.997075
vt 0.186176 0.997075
vt 0.186176 1.325324
vt -0.142073 1.325324
vt -0.142073 0.997075
vt -0.983427 0.025136
vt -0.016911 0.025136
vt -0.016911 0.991652
vt -0.983427 0.991652
vt -0.983427 0.025136
vt -0.016912 0.025136
vt -0.016912 0.991652
vt -0.983427 0.991652
vt -0.142073 1.325324
vt -0.142073 0.997075
vt 0.186176 0.997075
vt 0.186176 1.325324
vt -0.142073 1.325324
vt -0.142073 0.997075
vt 0.186176 0.997075
vt 0.186176 1.325325
vt 0.186176 0.997075
vt 0.186177 1.325324
vt -0.142073 1.325324
vt -0.142073 0.997075
vt 0.186176 0.997075
vt 0.186176 1.325324
vt -0.142073 1.325324
vt -0.142073 0.997075
vt -0.983427 0.025136
vt -0.016911 0.025136
vt -0.016911 0.991652
vt -0.983427 0.991652
vt -0.983427 0.025136
vt -0.016912 0.025136
vt -0.016912 0.991652
vt -0.983427 0.991652
vt -0.142073 1.325324
vt -0.142073 0.997075
vt 0.186176 0.997075
vt 0.186176 1.325324
vt -0.142073 1.325324
vt -0.142073 0.997075
vt 0.186176 0.997075
vt 0.186176 1.325325
vt 0.186176 0.997075
vt 0.186177 1.325324
vt -0.142073 1.325324
vt -0.142073 0.997075
vt 0.186176 0.997075
vt 0.186176 1.325324
vt -0.142073 1.325324
vt -0.142073 0.997075
vn 1.000000 0.000000 0.000000
vn 1.000000 0.000000 0.000000
vn 1.000000 0.000000 0.000000
vn 1.000000 0.000000 0.000000
vn -1.000000 0.000000 0.000000
vn -1.000000 0.000000 0.000000
vn -1.000000 0.000000 0.000000
vn -1.000000 0.000000 0.000000
vn -0.000000 0.000000 -1.000000
vn -0.000000 0.000000 -1.000000
vn -0.000000 0.000000 -1.000000
vn -0.000000 0.000000 -1.000000
vn -0.000003 -1.000000 0.000000
vn -0.000003 -1.000000 0.000000
vn -0.000003 -1.000000 0.000000
vn -0.000003 -1.000000 0.000000
vn -0.000000 0.000000 1.000000
vn -0.000000 0.000000 1.000000
vn -0.000000 0.000000 1.000000
vn -0.000000 0.000000 1.000000
vn 0.000003 1.000000 0.000000
vn 0.000003 1.000000 0.000000
vn 0.000003 1.000000 0.000000
vn 0.000003 1.000000 0.000000
vn 0.000000 -1.000000 0.000000
vn 0.000000 -1.000000 0.000000
vn 0.000000 -1.000000 0.000000
vn 0.000000 -1.000000 0.000000
vn 0.000000 1.000000 0.000000
vn 0.000000 1.000000 0.000000
vn 0.000000 1.000000 0.000000
vn 0.000000 1.000000 0.000000
vn 0.000000 0.000000 -1.000000
vn 0.000000 0.000000 -1.000000
vn 0.000000 0.000000 -1.000000
vn 0.000000 0.000000 -1.000000
vn -1.000000 0.000004 0.000000
vn -1.000000 0.000004 0.000000
vn -1.000000 0.000004 0.000000
vn -1.000000 0.000004 0.000000
vn 0.000000 0.000000 1.000000
vn 0.000000 0.000000 1.000000
vn 0.000000 0.000000 1.000000
vn 0.000000 0.000000 1.000000
vn 1.000000 -0.000004 0.000000
vn 1.000000 -0.000004 0.000000
vn 1.000000 -0.000004 0.000000
vn 1.000000 -0.000004 0.000000
vn 0.000000 0.000000 1.000000
vn 0.000000 0.000000 1.000000
vn 0.000000 0.000000 1.000000
vn 0.000000 0.000000 1.000000
vn 0.000000 0.000000 -1.000000
vn 0.000000 0.000000 -1.000000
vn 0.000000 0.000000 -1.000000
vn 0.000000 0.000000 -1.000000
vn 1.000000 0.000000 0.000000
vn 1.000000 0.000000 0.000000
vn 1.000000 0.000000 0.000000
vn 1.000000 0.000000 0.000000
vn 0.000000 -1.000000 -0.000003
vn 0.000000 -1.000000 -0.000003
vn 0.000000 -1.000000 -0.000003
vn 0.000000 -1.000000 -0.000003
vn -1.000000 0.000000 0.000000
vn -1.000000 0.000000 0.000000
vn -1.000000 0.000000 0.000000
vn -1.000000 0.000000 0.000000
vn 0.000000 1.000000 0.000003
vn 0.000000 1.000000 0.000003
vn 0.000000 1.000000 0.000003
vn 0.000000 1.000000 0.000003
vn 1.000000 0.000000 0.000000
vn 1.000000 0.000000 0.000000
vn 1.000000 0.000000 0.000000
vn 1.000000 0.000000 0.000000
vn -1.000000 0.000000 0.000000
vn -1.000000 0.000000 0.000000
vn -1.000000 0.000000 0.000000
vn -1.000000 0.000000 0.000000
vn 0.000001 0.000000 -1.000000
vn 0.000001 0.000000 -1.000000
vn 0.000001 0.000000 -1.000000
vn 0.000001 0.000000 -1.000000
vn -0.000003 -1.000000 0.000000
vn -0.000003 -1.000000 0.000000
vn -0.000003 -1.000000 0.000000
vn -0.000003 -1.000000 0.000000
vn 0.000000 0.000000 1.000000
vn 0.000000 0.000000 1.000000
vn 0.000000 0.000000 1.000000
vn 0.000000 0.000000 1.000000
vn 0.000002 1.000000 0.000000
vn 0.000002 1.000000 0.000000
vn 0.000002 1.000000 0.000000
vn 0.000002 1.000000 0.000000
vn 0.000000 -1.000000 0.000000
vn 0.000000 -1.000000 0.000000
vn 0.000000 -1.000000 0.000000
vn 0.000000 -1.000000 0.000000
vn 0.000000 1.000000 0.000000
vn 0.000000 1.000000 0.000000
vn 0.000000 1.000000 0.000000
vn 0.000000 1.000000 0.000000
vn 0.000000 0.000000 -1.000000
vn 0.000000 0.000000 -1.000000
vn 0.000000 0.000000 -1.000000
vn 0.000000 0.000000 -1.000000
vn -1.000000 0.000003 0.000000
vn -1.000000 0.000003 0.000000
vn -1.000000 0.000003 0.000000
vn -1.000000 0.000003 0.000000
vn 0.000000 0.000000 1.000000
vn 0.000000 0.000000 1.000000
vn 0.000000 0.000000 1.000000
vn 0.000000 0.000000 1.000000
vn 1.000000 -0.000002 0.000000
vn 1.000000 -0.000002 0.000000
vn 1.000000 -0.000002 0.000000
vn 1.000000 -0.000002 0.000000
s off
g polySurface2
usemtl puertaGarage:lambert2SG
f 1/1/1 2/2/2 4/3/3 3/4/4
f 5/5/5 6/6/6 8/7/7 7/8/8
f 2/9/9 1/10/10 7/11/11 8/12/12
f 1/13/13 3/14/14 5/15/15 7/16/16
f 3/17/17 4/18/18 6/19/19 5/20/20
f 4/21/21 2/22/22 8/23/23 6/24/24
f 9/25/25 10/26/26 12/27/27 11/28/28
f 13/29/29 14/30/30 16/31/31 15/32/32
f 10/33/33 9/34/34 15/35/35 16/36/36
f 9/37/37 11/38/38 13/39/39 15/40/40
f 11/41/41 12/42/42 14/43/43 13/44/44
f 12/45/45 10/46/46 16/47/47 14/48/48
usemtl pasted__lambert2SG
f 17/49/49 18/50/50 20/51/51 19/52/52
f 21/53/53 22/54/54 24/55/55 23/56/56
f 18/57/57 17/58/58 23/59/59 24/60/60
f 17/61/61 19/62/62 21/63/63 23/64/64
f 19/65/65 20/66/66 22/67/67 21/68/68
f 20/69/69 18/70/70 24/71/71 22/72/72
usemtl puertaGarage:lambert2SG
f 25/73/73 26/74/74 28/75/75 27/76/76
f 29/77/77 30/78/78 32/79/79 31/80/80
f 26/81/81 25/82/82 31/83/83 32/84/84
f 25/85/85 27/86/86 29/87/87 31/88/88
f 27/89/89 28/90/90 30/91/91 29/92/92
f 28/93/93 26/94/94 32/95/95 30/96/96
f 33/97/97 34/98/98 36/99/99 35/100/100
f 37/101/101 38/102/102 40/103/103 39/104/104
f 34/105/105 33/106/106 39/107/107 40/108/108
f 33/109/109 35/110/110 37/111/111 39/112/112
f 35/113/113 36/114/114 38/115/115 37/116/116
f 36/117/117 34/118/118 40/119/119 38/120/120
