# This file uses centimeters as units for non-parametric coordinates.

mtllib puerta_garage.mtl
g default
v -0.916500 -1.095000 0.083333
v 0.916500 -1.095000 0.083333
v -0.916500 1.095000 0.083333
v 0.916500 1.095000 0.083333
v -0.916499 1.095000 -0.083333
v 0.916500 1.095000 -0.083333
v -0.916499 -1.095000 -0.083333
v 0.916500 -1.095000 -0.083333
vt -0.142073 1.325324
vt -0.142073 0.997075
vt 0.186176 0.997075
vt 0.186176 1.325325
vt 0.186176 0.997075
vt 0.186176 1.325324
vt -0.142073 1.325324
vt -0.142073 0.997075
vt -0.142073 1.325324
vt -0.142073 0.997075
vt 0.186176 0.997075
vt 0.186176 1.325324
vt 0.186176 0.997075
vt 0.186177 1.325324
vt -0.142073 1.325324
vt -0.142073 0.997075
vt -0.983427 0.025136
vt -0.016911 0.025136
vt -0.016911 0.991652
vt -0.983427 0.991652
vt -0.983427 0.025136
vt -0.016912 0.025136
vt -0.016912 0.991652
vt -0.983427 0.991652
vn 0.000000 0.000000 1.000000
vn 0.000000 0.000000 1.000000
vn 0.000000 0.000000 1.000000
vn 0.000000 0.000000 1.000000
vn 0.000000 0.000000 -1.000000
vn 0.000000 0.000000 -1.000000
vn 0.000000 0.000000 -1.000000
vn 0.000000 0.000000 -1.000000
vn 0.000000 -1.000000 0.000000
vn 0.000000 -1.000000 0.000000
vn 0.000000 -1.000000 0.000000
vn 0.000000 -1.000000 0.000000
vn -1.000000 0.000000 -0.000003
vn -1.000000 0.000000 -0.000003
vn -1.000000 0.000000 -0.000003
vn -1.000000 0.000000 -0.000003
vn 0.000000 1.000000 0.000000
vn 0.000000 1.000000 0.000000
vn 0.000000 1.000000 0.000000
vn 0.000000 1.000000 0.000000
vn 1.000000 0.000000 0.000003
vn 1.000000 0.000000 0.000003
vn 1.000000 0.000000 0.000003
vn 1.000000 0.000000 0.000003
s off
g pasted__pCube36 group
usemtl lambert2SG
f 1/17/1 2/18/2 4/19/3 3/20/4
f 5/21/5 6/22/6 8/23/7 7/24/8
f 2/9/9 1/10/10 7/11/11 8/12/12
f 1/1/13 3/2/14 5/3/15 7/4/16
f 3/13/17 4/14/18 6/15/19 5/16/20
f 4/5/21 2/6/22 8/7/23 6/8/24
